<?xml version="1.0" standalone="no"?>
<!DOCTYPE svg PUBLIC "-//W3C//DTD SVG 20010904//EN"
 "http://www.w3.org/TR/2001/REC-SVG-20010904/DTD/svg10.dtd">
<svg version="1.0" xmlns="http://www.w3.org/2000/svg"
 width="514.000000pt" height="486.000000pt" viewBox="0 0 514.000000 486.000000"
 preserveAspectRatio="xMidYMid meet">

<g transform="translate(0.000000,486.000000) scale(0.100000,-0.100000)"
fill="#000000" stroke="none">
<path d="M2312 4707 c25 -20 12 -27 -48 -27 -121 0 -266 -45 -466 -145 -184
-93 -237 -109 -339 -103 -86 5 -154 33 -374 157 -187 104 -301 126 -403 75
-103 -51 -147 -139 -146 -289 0 -135 47 -279 131 -406 l25 -38 -35 -42 c-20
-23 -40 -54 -46 -71 -9 -26 -8 -30 15 -38 14 -6 28 -10 31 -10 4 0 39 -31 78
-69 42 -41 84 -72 101 -76 72 -16 72 -18 -9 -72 -68 -46 -168 -92 -200 -93 -7
-1 8 -18 31 -39 l44 -38 -49 -28 c-26 -15 -81 -40 -122 -55 l-74 -27 45 -7
c25 -4 74 -2 109 3 34 6 64 9 66 7 7 -6 -135 -119 -220 -176 -48 -32 -107 -64
-132 -71 -25 -7 -45 -17 -45 -22 0 -12 65 -37 95 -37 23 0 24 -2 15 -20 -12
-23 -4 -25 34 -10 14 5 26 7 26 5 0 -3 -22 -29 -48 -58 -65 -72 -108 -135
-143 -212 -46 -103 -75 -264 -63 -356 l7 -50 17 50 c18 53 57 112 99 149 37
33 102 74 108 69 2 -3 -11 -29 -31 -59 -76 -114 -112 -246 -104 -380 5 -82 34
-208 48 -208 4 0 10 13 13 30 7 32 104 140 126 140 10 0 11 -10 4 -42 -9 -50
-10 -195 0 -204 4 -4 15 4 26 17 l19 23 7 -74 c11 -121 56 -233 114 -284 21
-19 21 -19 21 11 0 39 20 94 31 87 5 -3 9 -20 9 -37 0 -47 37 -175 67 -230 33
-60 105 -127 171 -161 67 -34 76 -33 55 7 -18 33 -24 136 -10 170 6 15 18 4
67 -62 34 -44 89 -105 123 -136 57 -52 186 -145 201 -145 4 0 3 12 0 28 l-7
27 24 -21 c13 -11 59 -51 101 -88 l76 -67 -19 51 c-19 51 -26 150 -10 150 22
0 121 -113 150 -171 18 -35 37 -64 44 -64 7 0 16 -35 23 -90 18 -133 84 -326
84 -246 0 37 17 22 40 -35 59 -143 173 -267 294 -318 53 -22 59 -20 41 14 -15
29 -20 70 -9 70 3 0 26 -18 50 -39 44 -39 109 -74 157 -86 20 -5 26 -2 31 17
6 22 7 22 39 -15 l33 -38 32 38 c30 37 32 37 38 16 3 -13 13 -23 21 -23 27 0
138 61 173 96 20 19 39 34 43 34 12 0 8 -40 -8 -70 -18 -34 -12 -36 41 -14
121 51 218 154 291 312 35 74 37 76 43 47 l7 -30 16 35 c26 59 49 151 61 240
7 52 16 85 23 85 7 0 26 29 44 64 29 58 128 171 150 171 16 0 9 -99 -10 -150
l-19 -51 76 67 c42 37 88 77 101 88 l24 21 -7 -27 c-3 -16 -4 -28 0 -28 15 0
151 98 205 148 33 30 87 91 119 135 50 66 61 76 67 61 14 -35 8 -138 -10 -171
-21 -40 -12 -41 55 -7 66 34 138 101 171 161 30 55 67 183 67 230 0 17 4 34 9
37 11 7 31 -48 31 -87 0 -30 0 -30 21 -11 58 51 103 163 114 284 l7 74 19 -23
c11 -13 22 -21 26 -17 10 9 9 154 0 204 -7 32 -6 42 4 42 22 0 119 -108 126
-140 3 -17 9 -30 13 -30 15 0 43 127 48 213 7 134 -32 272 -108 382 -18 26
-30 49 -27 51 8 9 84 -43 127 -86 43 -43 89 -126 91 -162 1 -13 5 -3 10 22 13
61 -5 216 -36 302 -31 90 -90 188 -159 266 -31 35 -56 65 -56 67 0 3 12 0 26
-5 36 -14 51 -13 36 2 -19 19 -14 28 13 28 30 0 95 25 95 37 0 5 -21 15 -47
22 -26 8 -85 40 -132 72 -85 57 -224 169 -218 175 2 2 32 -1 66 -7 35 -5 84
-7 109 -3 l45 7 -78 28 c-42 16 -98 40 -122 55 l-45 26 43 39 c24 21 39 38 32
39 -32 1 -132 47 -200 93 -81 54 -81 56 -9 72 17 4 59 35 101 76 39 38 74 69
78 69 3 0 17 4 31 10 23 8 24 12 15 38 -6 17 -26 48 -46 71 l-35 42 25 38 c84
127 131 271 131 406 1 150 -43 238 -146 289 -106 53 -214 30 -436 -93 -209
-115 -255 -134 -342 -139 -101 -6 -154 10 -338 103 -199 100 -344 145 -466
145 -60 0 -73 7 -48 27 34 28 -59 4 -138 -35 l-75 -37 -75 37 c-79 39 -172 63
-138 35z m98 -155 c14 -6 36 -20 50 -31 l25 -20 -38 6 c-29 4 -36 3 -32 -8 4
-11 -7 -14 -52 -12 l-58 3 43 -16 c24 -9 42 -18 40 -19 -2 -2 -35 0 -73 5 -84
11 -171 12 -205 3 -24 -7 -23 -8 15 -19 l40 -12 -48 -1 c-82 -2 -181 -29 -232
-66 -113 -80 -237 -226 -279 -330 l-17 -40 68 66 c37 37 93 85 122 109 134
103 329 170 498 170 79 0 202 -17 216 -30 4 -4 -13 -34 -37 -68 -59 -80 -102
-102 -198 -102 -159 0 -293 -48 -377 -134 -45 -45 -45 -45 -49 -131 -3 -59 -1
-85 7 -85 6 0 11 3 11 8 0 4 16 25 35 47 26 31 37 37 43 27 7 -11 18 -4 48 28
61 66 97 79 240 90 136 10 173 24 213 78 18 24 21 25 35 12 22 -22 4 -82 -37
-126 -34 -36 -62 -45 -247 -78 -108 -19 -130 -40 -123 -113 7 -58 8 -60 30
-41 26 22 117 47 211 57 65 7 90 14 117 35 32 25 35 25 35 8 0 -31 -21 -85
-44 -111 -11 -13 -62 -43 -112 -67 -135 -65 -185 -129 -183 -239 l0 -40 37 45
c72 87 132 139 188 160 30 11 57 20 59 20 3 0 5 -13 5 -30 0 -18 -11 -42 -30
-63 -41 -47 -70 -114 -70 -162 0 -52 11 -115 19 -115 4 0 15 24 24 54 10 30
36 83 59 117 l42 63 7 -34 c9 -42 -7 -124 -27 -141 -12 -9 -14 -6 -14 22 l0
34 -29 -50 c-35 -61 -67 -91 -105 -101 -27 -6 -28 -6 -16 16 17 31 4 37 -19 9
l-20 -24 5 80 4 80 -16 -63 c-17 -68 -46 -99 -84 -87 -15 5 -20 15 -20 43 0
34 -1 35 -14 17 -7 -11 -16 -38 -20 -60 -4 -22 -12 -45 -18 -52 -11 -14 21
-38 64 -48 40 -10 24 -25 -27 -25 -48 0 -69 16 -140 104 -59 72 -116 96 -233
96 -99 0 -144 12 -176 48 -16 18 -18 33 -14 94 4 49 1 85 -9 115 -10 28 -14
69 -11 116 4 88 49 191 122 280 26 33 46 61 43 63 -8 9 -173 -163 -211 -220
-45 -68 -76 -151 -76 -203 0 -21 13 -66 30 -101 36 -76 38 -92 10 -85 -48 13
-103 103 -121 200 -12 62 1 100 62 181 23 29 38 56 35 59 -11 11 -191 -181
-219 -234 -32 -59 -45 -139 -28 -170 9 -18 5 -25 -32 -54 -58 -45 -106 -108
-123 -166 -17 -56 -7 -128 26 -194 20 -38 21 -48 11 -134 -10 -95 -1 -157 30
-225 32 -68 46 -93 64 -116 18 -23 23 -24 53 -13 41 14 40 23 -25 159 -45 94
-45 96 -39 170 3 42 11 91 16 110 6 19 20 82 31 140 20 107 54 194 87 223 18
16 20 15 50 -22 30 -37 31 -41 17 -68 -31 -59 -12 -122 55 -188 39 -38 40 -41
40 -105 0 -110 42 -143 178 -144 45 0 82 -1 82 -2 0 -6 -132 -63 -181 -78 -46
-15 -63 -16 -97 -7 -51 14 -97 52 -134 110 -37 59 -36 39 4 -61 29 -74 37 -84
81 -112 43 -26 48 -33 43 -57 l-5 -26 103 -6 c57 -4 111 -9 120 -13 12 -5 16
0 16 18 0 28 67 121 83 115 6 -2 18 -26 28 -54 28 -83 67 -142 109 -163 20
-10 58 -35 83 -54 25 -19 65 -45 89 -56 l43 -21 -35 27 c-146 117 -302 316
-271 347 7 7 12 5 17 -6 5 -15 10 -14 36 8 69 59 184 86 336 79 39 -2 72 -1
72 1 0 3 -14 14 -32 25 -27 16 -29 20 -14 26 45 17 180 -26 253 -82 41 -31 42
-18 2 32 -36 46 -70 77 -123 112 l-39 26 34 9 c32 8 33 10 14 23 -10 8 -25 14
-32 14 -7 0 -13 5 -13 11 0 8 16 9 52 5 52 -7 99 -26 131 -54 9 -8 17 -11 17
-6 0 12 -88 97 -115 112 -17 10 -17 11 -3 12 33 0 123 -23 146 -38 21 -14 26
-14 50 0 27 16 117 38 150 38 14 -1 14 -2 -3 -12 -27 -15 -94 -79 -107 -102
-9 -17 -6 -16 22 4 17 12 52 29 77 36 81 25 129 13 61 -15 l-33 -13 35 -10 35
-10 -25 -16 c-38 -24 -170 -157 -170 -171 0 -7 14 -2 33 13 61 46 134 76 202
83 43 4 65 2 65 -5 0 -6 -9 -13 -19 -17 -11 -3 -24 -11 -30 -18 -8 -11 14 -13
112 -14 138 -2 215 -22 279 -73 33 -27 38 -28 46 -14 18 32 23 -5 6 -38 -46
-89 -127 -186 -227 -269 -32 -27 -55 -49 -52 -49 13 0 72 35 120 70 27 21 64
45 82 54 37 18 68 66 99 150 12 33 26 62 31 63 16 6 83 -88 83 -115 0 -19 4
-23 18 -17 9 3 64 9 120 12 l104 6 -5 26 c-4 22 2 31 41 56 40 26 51 41 79
110 34 83 44 132 16 80 -8 -16 -29 -45 -47 -63 -80 -86 -158 -87 -321 -5 l-59
30 85 0 c137 -2 179 32 179 143 0 64 1 67 41 105 66 64 85 129 54 188 -14 27
-13 31 17 68 30 38 32 38 51 22 35 -32 58 -93 88 -232 63 -286 63 -295 5 -415
-64 -131 -65 -141 -24 -155 30 -11 35 -10 52 11 30 37 73 130 90 192 12 47 13
76 5 148 -9 83 -9 94 11 135 35 74 43 139 24 202 -13 44 -28 67 -84 123 l-68
69 5 54 c9 84 -35 164 -154 284 -98 100 -129 116 -67 34 62 -80 77 -124 65
-188 -17 -89 -75 -186 -119 -197 -29 -8 -28 0 8 82 17 38 30 85 30 104 0 94
-76 224 -203 349 -83 81 -126 106 -63 36 122 -135 175 -304 132 -426 -9 -26
-12 -63 -8 -111 8 -113 -17 -130 -194 -142 -134 -9 -172 -26 -237 -105 -62
-76 -84 -91 -134 -94 -48 -2 -66 14 -25 24 15 3 37 13 48 20 21 14 21 15 6 62
-8 26 -20 59 -26 72 -11 24 -11 23 -14 -12 -2 -25 -9 -38 -22 -42 -41 -13 -67
19 -90 110 -8 34 -9 28 -6 -40 l5 -80 -20 24 c-11 13 -22 21 -26 18 -3 -4 0
-13 7 -22 20 -24 3 -30 -35 -12 -34 16 -87 79 -102 121 -6 18 -8 16 -13 -14
l-6 -35 -15 30 c-22 41 -29 84 -20 125 l7 34 42 -63 c23 -34 49 -87 59 -117 9
-30 20 -54 23 -54 8 0 20 76 20 125 0 44 -22 94 -64 144 -23 28 -36 53 -36 72
0 16 2 29 5 29 2 0 29 -9 59 -20 56 -22 119 -74 188 -160 l37 -45 0 50 c1 101
-61 178 -183 230 -86 36 -129 73 -144 123 -21 68 -17 77 22 47 26 -20 52 -28
117 -35 95 -11 185 -36 212 -58 22 -19 23 -17 30 42 4 42 2 52 -18 72 -26 26
-74 41 -172 53 -143 18 -189 45 -217 129 -14 40 -14 48 -2 60 13 13 19 10 49
-21 45 -49 72 -57 210 -67 132 -9 173 -26 236 -96 20 -21 37 -32 39 -26 7 23
27 11 57 -33 17 -25 34 -45 39 -45 5 0 6 38 4 85 -4 85 -5 86 -48 130 -54 55
-159 110 -236 124 -32 6 -92 11 -133 11 -105 1 -147 21 -206 101 -25 34 -42
65 -38 69 14 13 138 30 219 30 222 -1 420 -89 612 -274 39 -38 72 -66 72 -62
0 35 -116 203 -186 271 -113 108 -180 142 -303 152 -74 6 -75 7 -41 18 33 11
34 12 10 18 -34 9 -122 8 -205 -3 -38 -5 -71 -7 -73 -5 -2 1 16 10 40 19 l43
16 -58 -3 c-40 -1 -56 1 -53 10 7 18 -4 22 -31 12 -40 -15 -37 -5 6 25 36 25
50 28 158 33 81 4 137 1 178 -8 l60 -13 -95 -6 c-138 -9 -157 -25 -38 -33 115
-8 201 -31 343 -90 168 -69 215 -80 314 -75 100 6 205 39 326 103 44 23 88 45
99 48 18 7 18 6 2 -18 -25 -39 -18 -36 103 38 l34 21 -19 -33 c-28 -48 -92
-120 -138 -153 -42 -30 -31 -37 31 -19 29 8 31 8 22 -7 -10 -15 -52 -51 -114
-97 -19 -14 -18 -14 15 -9 51 8 20 -10 -71 -39 -124 -41 -140 -41 -64 1 83 45
145 85 145 93 0 4 -27 -4 -60 -17 -62 -26 -225 -64 -272 -64 -21 0 -32 8 -44
33 -10 17 -19 27 -21 20 -7 -19 84 -187 129 -237 41 -47 42 -54 7 -35 -18 9
-19 8 -11 -8 16 -28 261 -265 314 -303 27 -18 46 -35 44 -37 -2 -3 -31 10 -65
26 -101 51 -69 18 67 -69 134 -87 205 -147 198 -166 -2 -6 13 -29 35 -50 21
-21 39 -42 39 -46 0 -11 -55 17 -114 59 -49 35 -49 35 -28 6 35 -49 193 -195
290 -267 50 -38 92 -71 92 -74 0 -2 -14 -2 -32 2 l-32 6 39 -40 c21 -22 36
-42 33 -46 -4 -3 -37 10 -74 30 -37 20 -69 35 -70 33 -2 -1 62 -68 141 -149
128 -129 205 -224 205 -251 0 -5 -15 4 -34 21 -43 38 -107 81 -171 116 l-50
28 30 -27 c17 -14 47 -35 68 -46 36 -19 49 -39 25 -39 -7 0 4 -16 25 -35 47
-43 48 -61 1 -33 -20 11 -64 29 -99 38 l-63 17 30 -41 c24 -33 27 -42 14 -44
-22 -5 -21 -8 19 -55 35 -40 45 -67 24 -67 -5 0 2 -16 17 -35 29 -39 22 -45
-16 -15 -36 28 -44 24 -20 -10 32 -45 69 -142 73 -192 l3 -45 -40 27 c-37 25
-196 83 -204 75 -2 -2 8 -21 21 -42 31 -49 92 -170 102 -203 6 -19 -1 -15 -30
20 -39 47 -73 75 -81 68 -2 -3 5 -30 15 -61 11 -32 18 -57 15 -57 -3 0 -16 7
-29 16 -31 20 -31 19 2 -52 30 -65 46 -215 24 -228 -6 -4 -11 -3 -11 2 0 21
-81 131 -114 157 -45 35 -56 27 -23 -17 39 -53 42 -65 11 -37 -38 33 -84 62
-91 56 -2 -3 11 -27 30 -54 52 -74 67 -122 67 -216 l0 -82 -24 58 c-30 73 -67
127 -107 156 -31 23 -51 22 -31 -1 19 -24 42 -121 42 -180 0 -59 -9 -73 -26
-40 -17 34 -109 161 -117 162 -4 0 -5 -24 -1 -52 l7 -53 -30 28 c-16 15 -32
27 -36 27 -3 0 -4 -35 0 -78 7 -90 -10 -157 -52 -207 l-26 -30 21 39 c12 21
18 41 15 45 -4 3 -11 -3 -17 -14 -6 -11 -40 -49 -75 -85 l-63 -65 35 77 c45
99 44 114 -4 58 l-39 -45 24 95 c24 94 42 210 32 210 -3 0 -17 -24 -32 -52
-14 -29 -35 -64 -46 -78 l-20 -25 0 35 c0 31 -6 23 -55 -75 -29 -60 -65 -123
-79 -140 l-26 -30 10 28 c12 35 1 34 -36 -4 -30 -31 -124 -103 -124 -94 0 2
25 39 55 82 30 42 52 79 49 82 -3 4 -30 -21 -60 -54 -44 -49 -52 -54 -44 -31
18 50 68 134 102 173 40 46 302 302 305 299 2 -1 -2 -17 -7 -36 -19 -66 11
-48 55 32 16 29 39 89 51 133 19 72 22 77 29 50 4 -16 9 -36 11 -44 3 -8 23
14 50 55 25 38 53 76 61 84 13 13 13 12 2 -13 -18 -39 -2 -46 26 -12 67 81
124 225 140 358 4 31 11 57 16 57 8 0 24 -49 32 -100 l3 -25 14 30 c23 53 18
151 -13 238 -15 43 -30 112 -34 153 -5 64 -3 77 13 95 19 21 48 22 99 3 14 -5
7 7 -21 37 -22 24 -46 52 -53 62 -12 15 -12 17 5 10 13 -5 10 4 -13 33 -17 21
-34 57 -38 78 -10 60 -44 124 -78 148 l-30 22 7 -40 c3 -21 9 -66 12 -99 5
-54 3 -64 -20 -98 l-27 -39 19 -51 c48 -127 34 -248 -41 -363 -55 -84 -105
-134 -176 -173 l-54 -29 32 -20 33 -20 -24 -16 c-22 -14 -28 -14 -83 9 -182
72 -408 41 -698 -97 -70 -34 -125 -63 -124 -65 2 -2 51 19 108 46 127 59 247
100 313 108 l50 6 -21 -27 c-34 -43 -112 -100 -188 -139 -75 -38 -175 -79
-175 -72 0 2 -13 -1 -30 -6 -16 -6 -30 -15 -30 -21 0 -15 75 1 139 29 31 14
95 33 143 43 94 20 124 36 181 99 l36 40 7 -36 c4 -21 2 -50 -4 -67 -12 -31
-4 -46 27 -46 8 0 12 -2 9 -5 -3 -3 -29 0 -58 6 -43 9 -68 8 -142 -6 -49 -10
-86 -21 -81 -26 4 -4 29 -3 54 2 26 6 71 9 100 7 l54 -3 -51 -51 c-97 -95
-198 -128 -371 -122 -96 4 -132 10 -193 32 -41 15 -110 40 -152 54 -43 15 -78
32 -78 38 0 15 38 48 79 69 59 30 121 109 121 155 0 19 9 30 36 45 42 23 81
75 90 124 4 20 14 36 25 38 13 4 20 18 24 52 15 127 26 176 44 212 11 21 19
39 16 39 -2 0 -27 -5 -55 -11 -35 -7 -60 -8 -78 -1 -15 6 -40 13 -55 17 -25 5
-28 3 -22 -15 5 -15 2 -20 -12 -18 -54 4 -70 -10 -30 -27 33 -15 33 -48 -2
-87 -87 -99 -298 -127 -436 -56 -100 50 -132 123 -66 150 l26 11 -28 8 c-16 4
-36 5 -44 2 -12 -5 -14 -1 -8 15 8 26 0 27 -61 6 -37 -13 -55 -14 -90 -5 -62
16 -64 15 -44 -25 17 -32 31 -101 45 -215 4 -34 11 -48 24 -52 12 -3 22 -18
26 -38 10 -50 47 -102 89 -124 26 -14 36 -26 36 -45 1 -48 64 -126 128 -159
49 -25 90 -69 71 -75 -331 -116 -334 -117 -449 -117 -83 0 -122 5 -171 21 -79
26 -147 69 -189 118 l-32 37 52 3 c29 2 73 -1 99 -7 25 -5 50 -6 54 -2 10 10
-104 35 -163 36 -25 0 -63 -3 -85 -7 -32 -6 -35 -6 -15 3 32 13 31 10 19 53
-6 20 -8 49 -4 64 l5 27 63 -60 c61 -58 65 -60 140 -72 43 -7 110 -26 150 -43
39 -17 89 -33 110 -36 52 -9 48 12 -5 26 -136 34 -339 149 -383 216 -15 24
-15 24 19 24 46 0 199 -52 325 -111 57 -27 106 -48 108 -46 1 2 -54 31 -124
65 -290 138 -516 169 -697 97 -54 -22 -60 -23 -83 -8 l-24 16 31 18 c16 10 30
21 30 23 0 3 -20 14 -45 25 -60 26 -136 100 -186 178 -72 115 -85 259 -33 369
14 29 15 40 6 53 -42 58 -46 78 -34 167 7 48 11 88 9 90 -2 3 -15 -5 -29 -16
-30 -23 -64 -90 -73 -146 -4 -21 -20 -56 -36 -76 -18 -23 -24 -38 -17 -40 7
-3 -9 -27 -37 -58 -31 -32 -42 -51 -30 -46 131 50 146 -25 65 -304 -20 -68
-21 -81 -10 -142 11 -64 30 -93 30 -47 0 29 21 99 30 99 4 0 11 -25 15 -56 16
-128 63 -258 124 -336 41 -53 56 -60 47 -22 l-7 27 24 -29 c13 -16 38 -51 55
-79 32 -51 33 -51 48 10 6 28 8 25 24 -36 20 -76 58 -163 88 -199 26 -31 34
-24 22 20 -5 19 -9 35 -7 36 4 4 280 -268 316 -310 32 -40 81 -129 96 -176 5
-16 -10 -3 -44 38 -28 34 -56 62 -61 62 -16 0 -12 -7 26 -57 20 -27 41 -58 47
-70 6 -13 14 -23 19 -23 4 0 8 -5 8 -11 0 -14 -58 28 -119 85 -43 40 -43 41
-39 13 3 -15 4 -27 2 -27 -10 0 -96 147 -120 205 -29 69 -29 70 -34 36 l-5
-35 -26 40 c-14 21 -33 56 -43 77 -9 20 -20 37 -23 37 -11 0 6 -113 31 -210
l24 -95 -39 45 c-48 56 -49 41 -4 -57 l35 -75 -39 34 c-20 18 -53 54 -72 80
-19 26 -37 47 -41 48 -9 0 9 -49 25 -70 10 -13 10 -13 -4 -3 -8 7 -26 34 -40
60 -21 42 -24 61 -23 146 0 53 -2 97 -5 97 -3 0 -18 -12 -34 -27 l-30 -28 6
54 c6 52 6 53 -12 37 -11 -10 -41 -51 -68 -91 -26 -41 -52 -74 -57 -75 -17 0
1 164 23 210 11 24 19 45 17 48 -8 8 -66 -42 -92 -79 -14 -20 -37 -64 -50 -96
l-25 -58 4 95 c2 80 7 104 31 150 15 30 37 65 48 77 50 53 -12 32 -76 -26 -31
-28 -27 -15 11 37 14 18 22 36 19 39 -12 13 -93 -68 -126 -125 -19 -34 -39
-62 -44 -62 -5 0 -7 39 -4 87 3 68 10 101 31 147 15 32 26 61 24 63 -2 2 -16
-6 -30 -18 -15 -11 -27 -19 -27 -17 0 5 28 92 35 111 4 9 3 17 -3 17 -10 0
-75 -64 -107 -105 -22 -29 47 123 90 196 20 34 34 63 32 65 -7 8 -165 -51
-202 -76 l-41 -27 7 56 c7 60 36 135 70 182 24 35 18 37 -21 7 -41 -30 -45
-19 -9 25 17 21 24 34 15 31 -9 -3 -16 -3 -16 0 0 16 30 63 55 86 26 24 26 25
5 30 -21 5 -21 6 8 46 l30 41 -63 -17 c-35 -9 -79 -27 -99 -38 -47 -28 -46
-10 2 33 20 19 31 35 25 35 -25 0 -12 20 24 39 21 11 52 32 68 46 l30 27 -50
-28 c-64 -35 -128 -78 -171 -116 -19 -17 -34 -26 -34 -21 0 27 77 122 205 251
79 81 143 148 141 149 -1 2 -33 -13 -70 -33 -37 -20 -70 -33 -74 -30 -3 4 12
24 33 46 l39 40 -32 -6 c-18 -4 -32 -4 -32 -2 0 3 48 41 108 86 148 111 373
340 245 249 -59 -42 -113 -70 -113 -59 0 4 18 25 39 46 22 21 37 44 35 50 -7
19 63 78 199 166 70 46 127 87 127 92 0 4 -27 -6 -61 -23 -34 -16 -63 -29 -65
-26 -2 2 17 19 44 37 53 38 298 275 314 303 8 16 7 17 -11 8 -34 -19 -36 -12
-5 22 17 17 40 46 52 63 34 50 94 174 89 187 -2 7 -12 -3 -21 -22 -18 -33 -18
-34 -73 -27 -79 9 -177 35 -255 67 -38 15 -68 25 -68 23 0 -7 98 -71 165 -107
76 -41 60 -41 -64 0 -91 29 -122 47 -71 39 33 -5 34 -5 15 9 -47 36 -134 110
-131 112 1 1 18 -2 37 -7 18 -6 43 -10 54 -9 20 0 20 0 1 12 -60 37 -186 181
-171 195 2 3 19 -6 37 -20 33 -25 92 -58 103 -58 3 0 -2 11 -11 25 -16 24 -16
25 2 18 11 -3 55 -25 99 -49 118 -62 225 -96 326 -102 99 -5 146 6 314 75 141
59 227 81 343 89 119 9 100 25 -38 34 l-95 6 45 11 c54 14 284 10 320 -5z
m-848 -1345 c28 -29 68 -90 98 -149 49 -94 55 -101 103 -125 l52 -24 -53 4
c-66 5 -102 36 -144 123 -16 34 -43 74 -60 90 -37 35 -35 28 34 -101 49 -92
57 -102 103 -125 40 -20 65 -25 128 -25 87 0 86 -9 -7 -44 -43 -16 -61 -17
-120 -9 -39 5 -81 16 -95 23 l-26 14 38 1 c50 0 47 14 -10 42 -58 30 -89 68
-75 94 8 14 4 26 -18 54 -16 20 -36 52 -46 73 -16 34 -16 38 -1 55 23 25 22
29 -13 61 -28 25 -30 31 -20 56 l11 28 37 -34 c20 -19 58 -56 84 -82z m2058
88 c8 -20 4 -29 -20 -54 -34 -33 -36 -43 -15 -61 23 -19 18 -38 -26 -102 -29
-43 -39 -67 -35 -83 8 -31 -23 -68 -79 -94 -55 -26 -58 -41 -7 -41 l37 -1 -26
-14 c-14 -7 -56 -18 -95 -23 -59 -8 -77 -7 -120 9 -93 35 -94 44 -7 44 63 0
88 5 128 25 46 23 54 33 103 125 68 128 71 135 38 105 -16 -14 -43 -54 -61
-90 -52 -103 -88 -131 -163 -129 l-37 1 30 11 c62 24 76 40 127 139 43 84 66
116 132 180 44 43 81 78 83 78 2 0 8 -11 13 -25z m-1047 -110 l38 -43 -53 -7
c-51 -6 -95 -2 -106 10 -6 6 68 86 78 84 3 0 22 -20 43 -44z m-676 -41 c3 -8
-2 -23 -11 -32 -15 -15 -17 -15 -33 0 -13 14 -14 20 -3 32 16 20 39 20 47 0z
m1303 0 c11 -12 10 -18 -3 -32 -16 -15 -18 -15 -33 0 -19 18 -12 48 9 48 8 0
20 -7 27 -16z m-1416 -38 c17 -41 41 -55 96 -59 64 -4 82 -47 29 -66 -79 -28
-159 4 -190 75 -25 56 -18 84 22 84 23 0 31 -6 43 -34z m1561 14 c4 -12 -2
-39 -15 -66 -35 -71 -110 -100 -189 -73 -54 19 -34 62 30 66 54 4 88 26 96 63
5 26 10 30 39 30 24 0 34 -5 39 -20z m-755 -30 l35 -1 -37 -20 c-21 -10 -42
-28 -48 -39 -10 -19 -12 -18 -46 15 -19 19 -40 36 -47 36 -7 1 6 5 28 9 22 4
49 6 60 4 11 -2 36 -4 55 -4z m284 -660 c28 -28 16 -33 -27 -11 -37 19 -37 19
-95 -5 -77 -31 -192 -48 -272 -40 -75 8 -172 31 -211 51 -23 13 -31 12 -65 -5
-47 -24 -58 -16 -21 16 34 29 70 30 128 5 24 -11 83 -27 130 -37 80 -15 91
-15 168 0 45 9 105 27 134 40 58 25 96 22 131 -14z m-427 -76 c82 -17 83 -17
175 5 51 13 115 32 143 42 53 20 70 13 56 -25 -6 -14 -18 -21 -40 -22 -42 -2
-97 -41 -117 -82 -14 -30 -14 -35 0 -58 9 -13 21 -24 26 -24 6 0 10 -5 10 -11
0 -6 -12 -9 -27 -7 -21 2 -33 13 -48 43 l-20 40 -3 -33 c-5 -53 -32 -21 -32
38 0 57 -7 66 -30 38 l-17 -22 -12 22 c-17 31 -27 20 -29 -30 -3 -77 -28 -110
-34 -45 l-3 32 -20 -40 c-15 -30 -27 -41 -47 -43 -16 -2 -28 1 -28 7 0 6 4 11
10 11 5 0 17 12 27 26 16 24 16 28 0 57 -23 41 -78 79 -119 81 -33 2 -46 21
-34 51 4 12 16 10 68 -9 35 -13 100 -32 145 -42z m-1058 -115 c16 -47 15 -49
-36 -42 -49 6 -119 31 -111 38 4 4 110 32 130 34 3 1 11 -13 17 -30z m2374 10
c20 -6 37 -13 37 -18 0 -9 -53 -26 -114 -37 -37 -6 -38 -6 -31 17 3 13 9 32
11 42 6 18 8 18 97 -4z m-2253 -209 c-8 -5 -19 -10 -25 -10 -5 0 -3 5 5 10 8
5 20 10 25 10 6 0 3 -5 -5 -10z m2050 0 c8 -5 11 -10 5 -10 -5 0 -17 5 -25 10
-8 5 -10 10 -5 10 6 0 17 -5 25 -10z m-1200 -228 c108 -30 297 -19 403 23 15
6 17 1 17 -37 0 -73 -60 -107 -76 -43 -7 27 -24 35 -24 10 0 -18 -31 -20 -47
-4 -9 9 -16 8 -28 -5 -20 -20 -24 -20 -47 1 -11 9 -18 11 -18 5 0 -7 -7 -12
-15 -12 -8 0 -15 5 -15 12 0 6 -7 4 -18 -5 -23 -21 -27 -21 -47 -1 -12 13 -19
14 -28 5 -16 -16 -47 -14 -47 4 0 25 -17 17 -24 -10 -16 -64 -76 -30 -76 43 0
38 2 43 18 37 9 -4 42 -14 72 -23z m-245 -37 c-25 -81 -34 -142 -35 -220 0
-120 -5 -135 -41 -135 -16 0 -38 9 -49 20 -50 50 -90 178 -90 290 l0 65 110 0
c106 0 111 -1 105 -20z m1035 -45 c-1 -155 -69 -310 -137 -310 -34 0 -43 29
-43 132 0 63 -7 117 -20 166 -11 39 -20 73 -20 74 0 2 50 3 110 3 l110 0 0
-65z m-891 -390 c15 -47 27 -70 37 -70 8 0 50 -36 93 -79 119 -122 167 -121
279 7 31 34 66 65 79 68 18 5 28 21 45 78 19 59 23 66 26 42 2 -16 -6 -73 -18
-125 -12 -53 -23 -100 -24 -106 0 -5 -4 -14 -9 -20 -4 -5 -21 -30 -38 -53 -43
-62 -101 -87 -204 -87 -146 0 -214 56 -260 214 -24 80 -43 201 -32 201 3 0 15
-31 26 -70z m-131 -203 c18 -40 55 -100 82 -134 l49 -60 -19 -30 c-21 -35 -67
-73 -88 -73 -24 0 -79 66 -96 116 -9 26 -16 69 -16 95 0 46 34 159 48 159 4 0
22 -33 40 -73z m862 16 c39 -104 10 -242 -61 -296 -25 -18 -28 -18 -61 -3 -19
9 -44 33 -55 53 l-21 36 53 68 c28 37 65 97 81 133 16 36 32 66 36 66 3 0 16
-26 28 -57z m-637 -193 c43 -38 46 -39 52 -20 8 24 23 22 39 -3 8 -13 7 -20
-4 -27 -8 -5 -20 -8 -27 -5 -7 2 -25 -2 -40 -10 -38 -20 -79 -19 -87 2 -8 20
3 103 14 103 4 0 28 -18 53 -40z m413 5 c10 -55 -2 -85 -34 -85 -15 0 -40 7
-56 15 -15 8 -32 13 -36 10 -13 -8 -40 6 -40 20 0 7 7 18 15 25 13 11 18 10
29 -5 13 -18 16 -17 57 18 23 20 46 37 50 37 5 0 11 -16 15 -35z m-271 -35 c3
-5 -1 -10 -9 -10 -9 0 -16 5 -16 10 0 6 4 10 9 10 6 0 13 -4 16 -10z m86 -5
c-1 -15 -24 -12 -29 3 -3 9 2 13 12 10 10 -1 17 -7 17 -13z m135 -171 c55 -20
113 -38 131 -41 36 -6 96 11 136 39 27 19 27 19 27 -1 0 -12 1 -24 1 -28 3
-15 -67 -41 -126 -47 -50 -6 -74 -2 -140 20 -65 22 -103 28 -205 31 -119 5
-130 3 -224 -27 -103 -33 -140 -34 -226 -8 -49 15 -58 24 -52 53 4 25 4 25 31
6 38 -27 98 -44 134 -38 18 3 70 19 117 37 47 17 103 36 125 40 70 15 166 3
271 -36z m-51 -85 c153 -45 172 -49 236 -50 47 -1 79 5 114 20 26 11 50 21 52
21 3 0 2 -17 -2 -37 -9 -52 -57 -146 -65 -132 -6 8 -9 8 -14 0 -12 -18 -23 -4
-31 36 l-7 38 -18 -35 c-10 -19 -28 -44 -39 -54 -22 -20 -22 -20 -16 0 4 12
-5 6 -24 -16 -17 -19 -31 -38 -31 -41 0 -4 -6 -9 -12 -12 -10 -3 -12 9 -10 50
5 72 -10 87 -32 30 -9 -23 -36 -63 -61 -87 l-44 -43 -12 29 c-11 28 -6 66 16
118 17 40 -20 9 -47 -39 l-26 -49 -13 63 c-15 78 -29 63 -29 -33 0 -61 -2 -68
-14 -51 -13 18 -13 18 -24 -1 -9 -15 -11 -5 -12 51 0 96 -14 112 -29 35 l-12
-62 -21 38 c-40 78 -67 87 -42 15 14 -42 12 -95 -6 -106 -14 -9 -90 78 -107
123 -21 56 -36 41 -31 -33 l3 -57 -44 48 c-24 27 -41 40 -37 30 7 -20 7 -20
-15 0 -11 10 -28 31 -35 47 -17 31 -34 27 -34 -8 0 -27 -15 -41 -26 -24 -5 8
-8 8 -14 0 -8 -14 -56 88 -67 139 -6 30 -4 33 13 25 60 -26 120 -42 143 -40
14 2 49 6 78 10 29 3 71 13 95 21 135 50 240 57 353 23z"/>
<path d="M1545 4095 c-20 -53 -57 -114 -112 -182 -47 -58 -26 -54 30 6 47 50
75 99 96 164 19 58 7 68 -14 12z"/>
<path d="M3485 4111 c9 -58 51 -138 101 -191 26 -27 50 -50 55 -50 4 0 -16 32
-46 71 -29 39 -60 86 -68 103 -8 17 -22 47 -31 66 l-17 35 6 -34z"/>
<path d="M1868 3641 c-56 -35 -88 -80 -95 -130 -4 -31 1 -51 28 -100 47 -89
98 -113 65 -31 -21 52 -20 114 1 151 19 32 36 39 26 12 -3 -10 14 0 38 23 24
23 55 49 69 58 25 17 25 17 -33 14 -51 -3 -58 -1 -53 15 5 21 8 22 -46 -12z"/>
<path d="M3137 3652 c3 -15 -3 -17 -54 -14 -58 3 -58 3 -33 -14 14 -9 45 -35
69 -58 24 -23 41 -33 38 -23 -10 29 11 19 28 -13 20 -38 19 -99 -1 -150 -9
-23 -15 -43 -12 -45 9 -9 46 8 52 23 3 10 17 37 31 62 13 25 25 58 25 73 0 61
-46 124 -120 162 -26 13 -28 13 -23 -3z"/>
<path d="M1225 2511 c-82 -24 -139 -55 -80 -43 19 3 31 -3 47 -24 40 -51 96
-109 101 -104 3 3 -8 36 -24 74 -16 38 -27 71 -25 73 2 3 32 7 65 10 l61 6 0
-98 c0 -96 0 -97 23 -91 12 3 59 6 105 6 l84 0 -8 33 c-12 48 -11 130 2 134 7
2 32 -24 57 -59 69 -97 102 -123 192 -153 44 -15 120 -50 170 -80 49 -29 104
-56 120 -59 17 -4 -14 18 -70 50 -165 94 -352 240 -332 260 3 4 70 -23 149
-60 155 -72 177 -74 33 -3 -269 133 -500 177 -670 128z"/>
<path d="M3470 2504 c-102 -27 -213 -70 -324 -125 -136 -68 -109 -63 42 7 79
37 146 64 149 60 20 -19 -156 -158 -320 -253 -62 -35 -98 -61 -82 -57 35 8 49
15 142 71 39 23 106 54 149 68 89 30 122 56 191 153 25 35 50 61 57 59 13 -4
14 -86 2 -134 l-8 -33 84 0 c46 0 93 -3 106 -6 22 -6 22 -5 22 91 l0 97 60 -5
c33 -2 63 -6 65 -9 3 -3 -8 -36 -24 -74 -16 -38 -27 -71 -24 -74 3 -3 33 26
67 64 57 63 65 68 92 63 27 -6 26 -5 -8 13 -100 54 -290 64 -438 24z"/>
</g>
</svg>
